<svg width="367" height="367" viewBox="0 0 367 367" fill="none" xmlns="http://www.w3.org/2000/svg">
<g clip-path="url(#clip0_893_5544)">
<rect width="367" height="367" fill="white"/>
<g clip-path="url(#clip1_893_5544)">
<rect width="430" height="932" transform="translate(-32 -283)" fill="white"/>
<g clip-path="url(#clip2_893_5544)">
<rect width="1282" height="1079" transform="translate(-278 -394)" fill="white"/>
<rect x="-1" y="-1" width="366" height="368" fill="#000004"/>
<g filter="url(#filter0_f_893_5544)">
<circle cx="1147.5" cy="-378.5" r="985.5" fill="#9F24FF"/>
</g>
<g filter="url(#filter1_f_893_5544)">
<circle cx="783" cy="667" r="584" fill="#9EE7FE"/>
</g>
<g filter="url(#filter2_f_893_5544)">
<circle cx="-62" cy="607" r="584" fill="#246CD6"/>
</g>
</g>
<g filter="url(#filter3_f_893_5544)">
<path d="M255.903 162.112L241.738 176.277C238.636 179.379 234.429 181.121 230.045 181.121H194.913L178.637 164.845C175.781 161.989 171.16 161.989 168.311 164.845L156.88 176.277C153.778 179.379 149.571 181.121 145.187 181.121H112.243C107.859 181.121 103.652 179.379 100.551 176.277L96.9652 172.692C95.4297 171.156 92.9346 171.156 91.3914 172.692L84.1516 179.931C82.6161 181.467 82.6161 183.962 84.1516 185.505L91.3914 192.745C92.9269 194.28 95.422 194.28 96.9652 192.745L100.551 189.16C103.652 186.058 107.859 184.315 112.243 184.315H145.172C149.555 184.315 153.763 186.058 156.864 189.16L168.296 200.591C171.152 203.447 175.774 203.447 178.622 200.591L194.898 184.315H230.467C234.851 184.315 239.058 186.058 242.16 189.16L255.887 202.887C258.513 205.512 262.774 205.512 265.4 202.887L281.031 187.256C283.656 184.63 283.656 180.369 281.031 177.743L265.4 162.112C262.774 159.486 258.513 159.486 255.887 162.112H255.903Z" fill="url(#paint0_linear_893_5544)"/>
</g>
<g filter="url(#filter4_f_893_5544)">
<path d="M255.903 162.112L241.738 176.277C238.636 179.379 234.429 181.121 230.045 181.121H194.913L178.637 164.845C175.781 161.989 171.16 161.989 168.311 164.845L156.88 176.277C153.778 179.379 149.571 181.121 145.187 181.121H112.243C107.859 181.121 103.652 179.379 100.551 176.277L96.9652 172.692C95.4297 171.156 92.9346 171.156 91.3914 172.692L84.1516 179.931C82.6161 181.467 82.6161 183.962 84.1516 185.505L91.3914 192.745C92.9269 194.28 95.422 194.28 96.9652 192.745L100.551 189.16C103.652 186.058 107.859 184.315 112.243 184.315H145.172C149.555 184.315 153.763 186.058 156.864 189.16L168.296 200.591C171.152 203.447 175.774 203.447 178.622 200.591L194.898 184.315H230.467C234.851 184.315 239.058 186.058 242.16 189.16L255.887 202.887C258.513 205.512 262.774 205.512 265.4 202.887L281.031 187.256C283.656 184.63 283.656 180.369 281.031 177.743L265.4 162.112C262.774 159.486 258.513 159.486 255.887 162.112H255.903Z" fill="url(#paint1_linear_893_5544)"/>
</g>
<path d="M136.398 127.462L128.654 135.232C127.253 136.638 127.253 138.916 128.654 140.322L136.398 148.091C137.799 149.497 140.07 149.497 141.471 148.091L149.215 140.322C150.616 138.916 150.616 136.638 149.215 135.232L141.471 127.462C140.07 126.057 137.799 126.057 136.398 127.462Z" fill="white"/>
<path d="M178.649 85.1003L169.214 94.5665C166.423 97.3668 166.423 101.907 169.214 104.707L178.649 114.174C181.44 116.974 185.966 116.974 188.757 114.174L198.192 104.707C200.983 101.907 200.983 97.3668 198.192 94.5665L188.757 85.1003C185.966 82.2999 181.44 82.2999 178.649 85.1003Z" fill="white"/>
<path d="M214.206 120.144L201.35 133.042C198.739 135.661 198.739 139.908 201.35 142.527L214.206 155.425C216.816 158.045 221.049 158.045 223.66 155.425L236.515 142.527C239.126 139.908 239.126 135.661 236.515 133.042L223.66 120.144C221.049 117.524 216.816 117.524 214.206 120.144Z" fill="white"/>
<path d="M136.411 217.914L128.667 225.684C127.266 227.089 127.266 229.368 128.667 230.774L136.411 238.543C137.812 239.949 140.083 239.949 141.484 238.543L149.228 230.774C150.629 229.368 150.629 227.089 149.228 225.684L141.484 217.914C140.083 216.509 137.812 216.509 136.411 217.914Z" fill="white"/>
<path d="M178.648 251.826L169.213 261.293C166.422 264.093 166.422 268.633 169.213 271.434L178.648 280.9C181.439 283.7 185.965 283.7 188.756 280.9L198.191 271.434C200.982 268.633 200.982 264.093 198.191 261.293L188.756 251.826C185.965 249.026 181.439 249.026 178.648 251.826Z" fill="white"/>
<path d="M214.199 210.576L201.344 223.474C198.733 226.094 198.733 230.34 201.344 232.96L214.199 245.858C216.81 248.477 221.043 248.477 223.653 245.858L236.509 232.96C239.12 230.34 239.12 226.094 236.509 223.474L223.653 210.576C221.043 207.957 216.81 207.957 214.199 210.576Z" fill="white"/>
<path d="M255.913 162.006L241.754 176.211C238.656 179.32 234.444 181.065 230.068 181.065H194.93L178.652 164.733C175.798 161.87 171.179 161.87 168.325 164.733L156.884 176.211C153.786 179.32 149.574 181.065 145.199 181.065H112.234C107.859 181.065 103.647 179.32 100.549 176.211L96.9615 172.612C95.4125 171.058 92.9395 171.058 91.3905 172.612L84.1618 179.865C82.6127 181.419 82.6127 183.9 84.1618 185.454L91.3905 192.707C92.9395 194.261 95.4125 194.261 96.9615 192.707L100.549 189.108C103.647 186 107.859 184.255 112.234 184.255H145.171C149.547 184.255 153.759 186 156.857 189.108L168.298 200.587C171.151 203.449 175.771 203.449 178.625 200.587L194.903 184.255H230.476C234.851 184.255 239.064 186 242.162 189.108L255.885 202.877C258.521 205.522 262.761 205.522 265.397 202.877L281.023 187.199C283.659 184.555 283.659 180.301 281.023 177.656L265.397 161.979C262.761 159.334 258.521 159.334 255.885 161.979L255.913 162.006Z" fill="white"/>
</g>
</g>
<defs>
<filter id="filter0_f_893_5544" x="-338" y="-1864" width="2971" height="2971" filterUnits="userSpaceOnUse" color-interpolation-filters="sRGB">
<feFlood flood-opacity="0" result="BackgroundImageFix"/>
<feBlend mode="normal" in="SourceGraphic" in2="BackgroundImageFix" result="shape"/>
<feGaussianBlur stdDeviation="250" result="effect1_foregroundBlur_893_5544"/>
</filter>
<filter id="filter1_f_893_5544" x="-301" y="-417" width="2168" height="2168" filterUnits="userSpaceOnUse" color-interpolation-filters="sRGB">
<feFlood flood-opacity="0" result="BackgroundImageFix"/>
<feBlend mode="normal" in="SourceGraphic" in2="BackgroundImageFix" result="shape"/>
<feGaussianBlur stdDeviation="250" result="effect1_foregroundBlur_893_5544"/>
</filter>
<filter id="filter2_f_893_5544" x="-1146" y="-477" width="2168" height="2168" filterUnits="userSpaceOnUse" color-interpolation-filters="sRGB">
<feFlood flood-opacity="0" result="BackgroundImageFix"/>
<feBlend mode="normal" in="SourceGraphic" in2="BackgroundImageFix" result="shape"/>
<feGaussianBlur stdDeviation="250" result="effect1_foregroundBlur_893_5544"/>
</filter>
<filter id="filter3_f_893_5544" x="53" y="130.143" width="260" height="104.713" filterUnits="userSpaceOnUse" color-interpolation-filters="sRGB">
<feFlood flood-opacity="0" result="BackgroundImageFix"/>
<feBlend mode="normal" in="SourceGraphic" in2="BackgroundImageFix" result="shape"/>
<feGaussianBlur stdDeviation="15" result="effect1_foregroundBlur_893_5544"/>
</filter>
<filter id="filter4_f_893_5544" x="73" y="150.143" width="220" height="64.7131" filterUnits="userSpaceOnUse" color-interpolation-filters="sRGB">
<feFlood flood-opacity="0" result="BackgroundImageFix"/>
<feBlend mode="normal" in="SourceGraphic" in2="BackgroundImageFix" result="shape"/>
<feGaussianBlur stdDeviation="5" result="effect1_foregroundBlur_893_5544"/>
</filter>
<linearGradient id="paint0_linear_893_5544" x1="283" y1="183" x2="83" y2="183" gradientUnits="userSpaceOnUse">
<stop stop-color="white"/>
<stop offset="1" stop-color="white" stop-opacity="0"/>
</linearGradient>
<linearGradient id="paint1_linear_893_5544" x1="283" y1="183" x2="83" y2="183" gradientUnits="userSpaceOnUse">
<stop stop-color="white"/>
<stop offset="1" stop-color="white" stop-opacity="0.5"/>
</linearGradient>
<clipPath id="clip0_893_5544">
<rect width="367" height="367" fill="white"/>
</clipPath>
<clipPath id="clip1_893_5544">
<rect width="430" height="932" fill="white" transform="translate(-32 -283)"/>
</clipPath>
<clipPath id="clip2_893_5544">
<rect width="1282" height="1079" fill="white" transform="translate(-278 -394)"/>
</clipPath>
</defs>
</svg>
