<svg width="773" height="128" viewBox="0 0 773 128" fill="none" xmlns="http://www.w3.org/2000/svg">
<g clip-path="url(#clip0_670_6152)">
<path d="M82.8199 127.344H63.2053V48.0279V0.0708008H82.8199V127.344Z" fill="white"/>
<path d="M50.3305 31.8337H16.4011L0.0507812 48.2302V111.149L15.3738 127.344H50.3305L69.7435 106.643H19.2621V51.9274H69.7435L50.3305 31.8337Z" fill="white"/>
<path d="M164.149 33.6628H112.448L96.5107 49.4528V64.0007H114.08V55.8169L118.794 51.311H159.857V70.7788H112.256L96.5107 86.3473V112.372L111.843 127.353H147.607L159.857 115.462V127.353H179.289V49.6646L164.158 33.6628H164.149ZM159.953 110.225H123.777C118.372 110.225 113.984 105.806 113.984 100.385C113.984 97.6603 115.088 95.2051 116.855 93.4143C118.631 91.6331 121.089 90.5355 123.787 90.5355H159.963V110.225H159.953Z" fill="white"/>
<path d="M318.041 33.6628H266.34L250.403 49.4528V64.0007H267.973V55.8169L272.687 51.311H313.75V70.7788H266.148L250.403 86.3473V112.372L265.736 127.353H301.499L313.75 115.462V127.353H333.182V49.6646L318.051 33.6628H318.041ZM313.846 110.225H277.67C272.264 110.225 267.877 105.806 267.877 100.385C267.877 97.6603 268.981 95.2051 270.747 93.4143C272.523 91.6331 274.981 90.5355 277.679 90.5355H313.855V110.225H313.846Z" fill="white"/>
<path d="M574.745 127.343H555.121V69.1036V33.8843H574.745V127.343Z" fill="white"/>
<path d="M510.976 114.432H491.362V49.2891V33.8843H510.976V114.432Z" fill="white"/>
<path d="M543.523 127.344L559.461 110.331H510.976L491.362 114.432L506.07 127.344H543.523Z" fill="white"/>
<path d="M210.55 114.432H190.935V49.2892V9.91064H210.55V114.432Z" fill="white"/>
<path d="M238.757 127.344V110.331H210.55L190.935 114.432L205.644 127.344H238.757Z" fill="white"/>
<path d="M221.994 33.8843H238.757V50.897H210.55V44.7447L221.994 33.8843Z" fill="white"/>
<path d="M364.452 114.432H344.828V49.2892V9.91064H364.452V114.432Z" fill="white"/>
<path d="M392.65 127.344V110.331H364.452L344.828 114.432L359.546 127.344H392.65Z" fill="white"/>
<path d="M375.896 33.8843H392.65V50.897H364.452V44.7447L375.896 33.8843Z" fill="white"/>
<path d="M423.92 127.343H404.305V69.1036V33.8843H423.92V127.343Z" fill="white"/>
<path d="M436.996 33.8843H464.373L479.293 50.897V66.4751H460.898V50.897H423.919V45.5727L436.996 33.8843Z" fill="white"/>
<path d="M653.011 31.8337H602.741L586.391 48.2302V111.149L601.714 127.344H636.661L656.084 106.643H605.602V51.9274H672.434L653.011 31.8337Z" fill="white"/>
<path d="M672.434 51.9275H648.518V62.7879H672.434V51.9275Z" fill="white"/>
<path d="M672.434 95.783H648.518V106.643H672.434V95.783Z" fill="white"/>
<path d="M636.661 127.344H654.24L672.434 106.643H648.518L636.661 127.344Z" fill="white"/>
<path d="M703.694 127.344H684.08V48.0279V0.0708008H703.694V127.344Z" fill="white"/>
<path d="M703.694 72.4157L744.162 32.6616H762.97V52.5338H749.884L723.731 78.9724H703.694V72.4157Z" fill="white"/>
<path d="M703.694 85.5387L744.162 125.293H762.97V105.411H749.884L723.731 78.9724H703.694V85.5387Z" fill="white"/>
</g>
<defs>
<clipPath id="clip0_670_6152">
<rect width="772.121" height="127.273" fill="white" transform="translate(0.0507812 0.0708008)"/>
</clipPath>
</defs>
</svg>
