<svg width="1008" height="140" viewBox="0 0 1008 140" fill="none" xmlns="http://www.w3.org/2000/svg">
<g clip-path="url(#clip0_665_5995)">
<path d="M317.82 134.343H298.205V55.0278V7.07068H317.82V134.343Z" fill="white"/>
<path d="M285.33 38.8335H251.401L235.051 55.23V118.149L250.374 134.343H285.33L304.743 113.643H254.262V58.9272H304.743L285.33 38.8335Z" fill="white"/>
<path d="M399.149 40.6628H347.448L331.51 56.4528V71.0007H349.08V62.8169L353.794 58.311H394.857V77.7788H347.256L331.51 93.3473V119.372L346.843 134.353H382.606L394.857 122.462V134.353H414.289V56.6646L399.158 40.6628H399.149ZM394.953 117.225H358.777C353.372 117.225 348.984 112.806 348.984 107.385C348.984 104.66 350.088 102.205 351.855 100.414C353.631 98.6331 356.089 97.5355 358.787 97.5355H394.963V117.225H394.953Z" fill="white"/>
<path d="M553.041 40.6628H501.34L485.403 56.4528V71.0007H502.972V62.8169L507.686 58.311H548.749V77.7788H501.148L485.403 93.3473V119.372L500.735 134.353H536.499L548.749 122.462V134.353H568.182V56.6646L553.051 40.6628H553.041ZM548.845 117.225H512.669C507.264 117.225 502.876 112.806 502.876 107.385C502.876 104.66 503.981 102.205 505.747 100.414C507.523 98.6331 509.981 97.5355 512.679 97.5355H548.855V117.225H548.845Z" fill="white"/>
<path d="M809.745 134.343H790.121V76.1036V40.8843H809.745V134.343Z" fill="white"/>
<path d="M745.976 121.432H726.361V56.2891V40.8843H745.976V121.432Z" fill="white"/>
<path d="M778.523 134.343L794.46 117.331H745.976L726.361 121.432L741.07 134.343H778.523Z" fill="white"/>
<path d="M445.55 121.432H425.935V56.2891V16.9105H445.55V121.432Z" fill="white"/>
<path d="M473.757 134.343V117.331H445.55L425.935 121.432L440.644 134.343H473.757Z" fill="white"/>
<path d="M456.994 40.8843H473.757V57.897H445.55V51.7447L456.994 40.8843Z" fill="white"/>
<path d="M599.452 121.432H579.827V56.2891V16.9105H599.452V121.432Z" fill="white"/>
<path d="M627.649 134.343V117.331H599.452L579.827 121.432L594.546 134.343H627.649Z" fill="white"/>
<path d="M610.896 40.8843H627.649V57.897H599.452V51.7447L610.896 40.8843Z" fill="white"/>
<path d="M658.919 134.343H639.305V76.1036V40.8843H658.919V134.343Z" fill="white"/>
<path d="M671.996 40.8843H699.373L714.293 57.897V73.4751H695.898V57.897H658.919V52.5727L671.996 40.8843Z" fill="white"/>
<path d="M888.011 38.8335H837.741L821.391 55.23V118.149L836.714 134.343H871.661L891.083 113.643H840.602V58.9272H907.434L888.011 38.8335Z" fill="white"/>
<path d="M907.434 58.9271H883.518V69.7875H907.434V58.9271Z" fill="white"/>
<path d="M907.434 102.783H883.518V113.643H907.434V102.783Z" fill="white"/>
<path d="M871.661 134.343H889.24L907.434 113.643H883.518L871.661 134.343Z" fill="white"/>
<path d="M938.694 134.343H919.079V55.0278V7.07068H938.694V134.343Z" fill="white"/>
<path d="M938.694 79.4156L979.162 39.6615H997.97V59.5337H984.884L958.731 85.9722H938.694V79.4156Z" fill="white"/>
<path d="M938.694 92.5386L979.162 132.293H997.97V112.411H984.884L958.731 85.9723H938.694V92.5386Z" fill="white"/>
</g>
<g filter="url(#filter0_f_665_5995)">
<path d="M151.032 55.3785L141.116 65.2938C138.945 67.465 136 68.6849 132.932 68.6849H108.339L96.9461 57.2917C94.9469 55.2925 91.7117 55.2925 89.7179 57.2917L81.7157 65.2938C79.5445 67.465 76.5995 68.6849 73.5308 68.6849H50.4702C47.4016 68.6849 44.4565 67.465 42.2854 65.2938L39.7756 62.7841C38.7008 61.7093 36.9542 61.7093 35.874 62.7841L30.8061 67.8519C29.7313 68.9268 29.7313 70.6734 30.8061 71.7536L35.874 76.8214C36.9488 77.8963 38.6954 77.8963 39.7756 76.8214L42.2854 74.3117C44.4565 72.1405 47.4016 70.9206 50.4702 70.9206H73.5201C76.5887 70.9206 79.5338 72.1405 81.705 74.3117L89.7071 82.3138C91.7063 84.313 94.9416 84.313 96.9354 82.3138L108.329 70.9206H133.227C136.296 70.9206 139.241 72.1405 141.412 74.3117L151.021 83.9207C152.859 85.7587 155.842 85.7587 157.68 83.9207L168.622 72.9789C170.459 71.1409 170.459 68.1583 168.622 66.3203L157.68 55.3785C155.842 53.5405 152.859 53.5405 151.021 55.3785H151.032Z" fill="url(#paint0_linear_665_5995)"/>
</g>
<g filter="url(#filter1_f_665_5995)">
<path d="M151.032 55.3785L141.116 65.2938C138.945 67.465 136 68.6849 132.932 68.6849H108.339L96.9461 57.2917C94.9469 55.2925 91.7117 55.2925 89.7179 57.2917L81.7157 65.2938C79.5445 67.465 76.5995 68.6849 73.5308 68.6849H50.4702C47.4016 68.6849 44.4565 67.465 42.2854 65.2938L39.7756 62.7841C38.7008 61.7093 36.9542 61.7093 35.874 62.7841L30.8061 67.8519C29.7313 68.9268 29.7313 70.6734 30.8061 71.7536L35.874 76.8214C36.9488 77.8963 38.6954 77.8963 39.7756 76.8214L42.2854 74.3117C44.4565 72.1405 47.4016 70.9206 50.4702 70.9206H73.5201C76.5887 70.9206 79.5338 72.1405 81.705 74.3117L89.7071 82.3138C91.7063 84.313 94.9416 84.313 96.9354 82.3138L108.329 70.9206H133.227C136.296 70.9206 139.241 72.1405 141.412 74.3117L151.021 83.9207C152.859 85.7587 155.842 85.7587 157.68 83.9207L168.622 72.9789C170.459 71.1409 170.459 68.1583 168.622 66.3203L157.68 55.3785C155.842 53.5405 152.859 53.5405 151.021 55.3785H151.032Z" fill="url(#paint1_linear_665_5995)"/>
</g>
<path d="M67.3788 31.1237L61.9579 36.5624C60.9773 37.5463 60.9773 39.1414 61.9579 40.1253L67.3788 45.564C68.3594 46.5479 69.9493 46.5479 70.9299 45.564L76.3508 40.1253C77.3314 39.1414 77.3314 37.5463 76.3508 36.5624L70.9299 31.1237C69.9493 30.1398 68.3594 30.1398 67.3788 31.1237Z" fill="white"/>
<path d="M96.9545 1.47019L90.3499 8.09654C88.3961 10.0568 88.3961 13.235 90.3499 15.1952L96.9545 21.8216C98.9083 23.7818 102.076 23.7818 104.03 21.8216L110.634 15.1952C112.588 13.235 112.588 10.0568 110.634 8.09654L104.03 1.47019C102.076 -0.490063 98.9083 -0.490062 96.9545 1.47019Z" fill="white"/>
<path d="M121.844 26.0007L112.845 35.0292C111.017 36.8628 111.017 39.8355 112.845 41.6691L121.844 50.6977C123.671 52.5312 126.634 52.5312 128.462 50.6977L137.461 41.6691C139.288 39.8355 139.288 36.8628 137.461 35.0292L128.462 26.0007C126.634 24.1671 123.671 24.1671 121.844 26.0007Z" fill="white"/>
<path d="M67.3878 94.44L61.9669 99.8787C60.9863 100.863 60.9863 102.458 61.9669 103.442L67.3878 108.88C68.3684 109.864 69.9583 109.864 70.9389 108.88L76.3598 103.442C77.3404 102.458 77.3404 100.863 76.3598 99.8787L70.9389 94.44C69.9583 93.4561 68.3684 93.4561 67.3878 94.44Z" fill="white"/>
<path d="M96.9537 118.178L90.3491 124.805C88.3953 126.765 88.3953 129.943 90.3491 131.903L96.9537 138.53C98.9075 140.49 102.075 140.49 104.029 138.53L110.634 131.903C112.587 129.943 112.587 126.765 110.634 124.805L104.029 118.178C102.075 116.218 98.9075 116.218 96.9537 118.178Z" fill="white"/>
<path d="M121.839 89.3035L112.84 98.332C111.013 100.166 111.013 103.138 112.84 104.972L121.839 114C123.667 115.834 126.63 115.834 128.457 114L137.456 104.972C139.284 103.138 139.284 100.166 137.456 98.332L128.457 89.3035C126.63 87.4699 123.667 87.4699 121.839 89.3035Z" fill="white"/>
<path d="M151.039 55.3043L141.128 65.248C138.959 67.4237 136.011 68.6452 132.948 68.6452H108.351L96.9563 57.2129C94.9589 55.2089 91.725 55.2089 89.7276 57.2129L81.7189 65.248C79.5502 67.4237 76.6017 68.6452 73.539 68.6452H50.464C47.4013 68.6452 44.4527 67.4237 42.2841 65.248L39.7731 62.7287C38.6888 61.6408 36.9577 61.6408 35.8734 62.7287L30.8132 67.8055C29.7289 68.8933 29.7289 70.6301 30.8132 71.718L35.8734 76.7948C36.9577 77.8827 38.6888 77.8827 39.7731 76.7948L42.2841 74.2755C44.4527 72.0997 47.4013 70.8783 50.464 70.8783H73.5199C76.5826 70.8783 79.5312 72.0997 81.6998 74.2755L89.7085 82.3106C91.706 84.3146 94.9399 84.3146 96.9373 82.3106L108.332 70.8783H133.233C136.296 70.8783 139.245 72.0997 141.413 74.2755L151.02 83.9138C152.865 85.7651 155.833 85.7651 157.678 83.9138L168.616 72.9395C170.461 71.0882 170.461 68.1108 168.616 66.2595L157.678 55.2852C155.833 53.4339 152.865 53.4339 151.02 55.2852L151.039 55.3043Z" fill="white"/>
<defs>
<filter id="filter0_f_665_5995" x="0" y="24" width="200" height="91.2992" filterUnits="userSpaceOnUse" color-interpolation-filters="sRGB">
<feFlood flood-opacity="0" result="BackgroundImageFix"/>
<feBlend mode="normal" in="SourceGraphic" in2="BackgroundImageFix" result="shape"/>
<feGaussianBlur stdDeviation="15" result="effect1_foregroundBlur_665_5995"/>
</filter>
<filter id="filter1_f_665_5995" x="20" y="44" width="160" height="51.2992" filterUnits="userSpaceOnUse" color-interpolation-filters="sRGB">
<feFlood flood-opacity="0" result="BackgroundImageFix"/>
<feBlend mode="normal" in="SourceGraphic" in2="BackgroundImageFix" result="shape"/>
<feGaussianBlur stdDeviation="5" result="effect1_foregroundBlur_665_5995"/>
</filter>
<linearGradient id="paint0_linear_665_5995" x1="170" y1="70" x2="30" y2="70" gradientUnits="userSpaceOnUse">
<stop stop-color="white"/>
<stop offset="1" stop-color="white" stop-opacity="0"/>
</linearGradient>
<linearGradient id="paint1_linear_665_5995" x1="170" y1="70" x2="30" y2="70" gradientUnits="userSpaceOnUse">
<stop stop-color="white"/>
<stop offset="1" stop-color="white" stop-opacity="0.5"/>
</linearGradient>
<clipPath id="clip0_665_5995">
<rect width="772.121" height="127.273" fill="white" transform="translate(235.051 7.07068)"/>
</clipPath>
</defs>
</svg>
